<?xml version="1.0" encoding="UTF-8"?>
<svg version="1.1" xmlns="http://www.w3.org/2000/svg" width="1024" height="1024">
<path d="M0 0 C337.92 0 675.84 0 1024 0 C1024 337.92 1024 675.84 1024 1024 C686.08 1024 348.16 1024 0 1024 C0 686.08 0 348.16 0 0 Z " fill="#030303" transform="translate(0,0)"/>
<path d="M0 0 C8.7936817 6.20989543 13.42745592 15.12223624 15.52734375 25.52734375 C15.96838509 31.46814519 15.94856464 37.39246832 15.93139648 43.34692383 C15.93710682 45.14009525 15.94407364 46.93326304 15.95219421 48.72642517 C15.97006945 53.57371157 15.96896762 58.42081637 15.96325183 63.26812577 C15.96015116 67.32595633 15.96626233 71.38375245 15.97229058 75.44157809 C15.98631632 85.0213842 15.98479136 94.60110109 15.97338867 104.1809082 C15.96191514 114.03754298 15.97597477 123.89390542 16.00278515 133.75050431 C16.02499675 142.23663324 16.03156707 150.72267702 16.02570873 159.20883292 C16.02235031 164.26677359 16.02467953 169.32453982 16.04195976 174.38245583 C16.0575136 179.14244664 16.05338043 183.90203663 16.03465462 188.6620121 C16.03099168 190.39973376 16.03400948 192.13748568 16.04454041 193.87517929 C16.1170141 206.83253496 15.38403154 219.29658344 6.50390625 229.59375 C-0.9248928 236.86105342 -9.54536853 240.50779052 -19.91015625 240.96484375 C-29.90855664 240.62639296 -38.40126369 236.51602996 -45.47265625 229.52734375 C-54.65120291 218.54120585 -54.91522346 207.15546389 -54.87670898 193.5300293 C-54.88241769 191.70582665 -54.88938389 189.88162758 -54.89750671 188.05743408 C-54.91539998 183.1213165 -54.91427669 178.18537706 -54.90856433 173.24923682 C-54.90546627 169.11928787 -54.91157195 164.98937282 -54.91760308 160.8594287 C-54.93163475 151.11043986 -54.93009892 141.36153867 -54.91870117 131.61254883 C-54.90722717 121.57698513 -54.92128672 111.54168889 -54.94809765 101.50616044 C-54.97029908 92.87059966 -54.97688185 84.23512256 -54.97102123 75.59953529 C-54.96766037 70.45050991 -54.97000841 65.30165585 -54.98727226 60.15265465 C-55.00280974 55.30732182 -54.99871075 50.46238307 -54.97996712 45.61706543 C-54.9762997 43.84667343 -54.97933534 42.07625178 -54.98985291 40.30588722 C-55.06076762 27.37405055 -54.21021938 15.82036693 -45.45703125 5.49609375 C-32.67567991 -7.18461703 -15.53003071 -9.24932319 0 0 Z " fill="#1FE75A" transform="translate(397.47265625,387.47265625)"/>
<path d="M0 0 C7.75185394 5.43786769 12.87969554 13.15917331 14.60546875 22.52734375 C14.90782741 27.02283234 14.89921527 31.51051499 14.89599609 36.01489258 C14.90198778 37.37899643 14.90879479 38.74309691 14.91635132 40.10719299 C14.93395369 43.79743317 14.93870426 47.48758048 14.93998289 51.17785859 C14.94140835 53.4877755 14.9456854 55.79766909 14.95097733 58.10758018 C14.9694587 66.17858748 14.97765033 74.24952889 14.97607422 82.32055664 C14.9748734 89.82382777 14.99596866 97.32681098 15.02756155 104.83000928 C15.05378038 111.28886565 15.06443917 117.7476283 15.0631634 124.20653743 C15.0626554 128.05665171 15.06824817 131.90650992 15.0895195 135.75657082 C15.10899689 139.38057988 15.10896241 143.00409107 15.09448624 146.62811852 C15.09142491 148.57754323 15.10800796 150.52696852 15.12536621 152.47631836 C15.04954098 163.1565253 12.48436222 172.43418537 4.890625 180.3046875 C-2.82976248 187.53586231 -11.38572608 190.91326921 -21.9375 190.73828125 C-32.12478304 189.86369733 -40.41001484 185.01020112 -47.26953125 177.58984375 C-52.69572937 171.0080664 -54.50606844 164.14028117 -54.54170227 155.67842102 C-54.54885757 154.50801773 -54.55601288 153.33761444 -54.56338501 152.13174438 C-54.56607391 150.85632782 -54.56876282 149.58091125 -54.5715332 148.2668457 C-54.57780336 146.90303883 -54.58445064 145.53923365 -54.59144592 144.1754303 C-54.6124241 139.70550716 -54.62284286 135.23558392 -54.6328125 130.765625 C-54.63686247 129.22270376 -54.64097946 127.67978269 -54.64516258 126.1368618 C-54.664201 118.88601109 -54.67843453 111.63517046 -54.68677455 104.38429958 C-54.69654047 96.03320519 -54.72284863 87.68237631 -54.76327544 79.33137542 C-54.79350175 72.86407833 -54.8082496 66.39685707 -54.81155556 59.92949075 C-54.81389871 56.07262281 -54.82276257 52.21603894 -54.84801674 48.35924721 C-54.871417 44.72707916 -54.87548333 41.09537984 -54.86525536 37.46315575 C-54.86452948 35.50892475 -54.88353637 33.55471692 -54.90332031 31.60058594 C-54.83858571 20.55791437 -52.01551852 11.69268725 -44.39453125 3.52734375 C-31.72402371 -8.06538203 -14.45751097 -8.89148717 0 0 Z " fill="#1FE85A" transform="translate(532.39453125,437.47265625)"/>
<path d="M0 0 C7.70091967 5.51423878 13.21482212 12.90026972 15.25 22.25 C15.35987945 25.10484935 15.41752238 27.93599042 15.42700195 30.79125977 C15.43357315 31.651996 15.44014435 32.51273224 15.44691467 33.39955139 C15.46661535 36.2468373 15.47830549 39.09407044 15.48828125 41.94140625 C15.49235678 42.91693892 15.4964323 43.89247158 15.50063133 44.89756584 C15.52148218 50.0649278 15.53578599 55.2322633 15.54516602 60.3996582 C15.55620497 65.71668707 15.59057875 71.03329451 15.63033772 76.3501749 C15.65658676 80.45536535 15.66486538 84.56045683 15.66844749 88.6657238 C15.67329508 90.62437715 15.68485642 92.58302662 15.70348549 94.54159737 C15.8240652 108.06342669 15.37510398 119.38104502 6.3046875 130.2421875 C-0.82001916 137.20435333 -9.17590651 140.25471615 -19 140.625 C-29.70137311 140.39209497 -36.91801543 137.04168347 -44.5859375 129.6171875 C-51.79476296 121.73172138 -54.04765085 113.87799599 -54.05639648 103.3840332 C-54.06472 102.52446518 -54.07304352 101.66489716 -54.08161926 100.77928162 C-54.10560468 97.95306795 -54.11447825 95.12708573 -54.12109375 92.30078125 C-54.13007026 90.32171057 -54.13919228 88.34264054 -54.14845276 86.36357117 C-54.16491527 82.21868242 -54.17263762 78.07387417 -54.17553711 73.92895508 C-54.18091153 68.64448203 -54.21856483 63.36077674 -54.26428127 58.07651997 C-54.29417877 53.98843191 -54.30126345 49.9005257 -54.30226326 45.81233788 C-54.30644201 43.86566853 -54.31878089 41.91899746 -54.33978081 39.9724369 C-54.48056318 25.79200499 -53.44289916 14.0235134 -43.13671875 3.2265625 C-30.26592853 -7.4323898 -14.17088832 -8.87757493 0 0 Z " fill="#1FE85A" transform="translate(664.75,486.75)"/>
</svg>
